<svg width="1280" height="726" viewBox="0 0 1280 726" fill="none" xmlns="http://www.w3.org/2000/svg">
<g clip-path="url(#clip0_1375_209)">
<path d="M438.5 0C309.691 258.854 218.804 383.016 0 539V726H737.5C857.5 432 1021 265.5 1280 119.5V0H438.5Z" fill="#043162"/>
<path d="M715 758C847.109 434.332 1027.11 250.733 1312.24 90V259.837C1032.84 388.197 914.368 505.215 750.229 758H715Z" fill="url(#paint0_linear_1375_209)"/>
<path d="M769.5 726C918.594 496.386 1026.21 390.094 1280 273.5V726L769.5 726Z" fill="#04376D"/>
<path d="M543.858 -4C422.231 293.988 256.513 463.02 -6.00031 611V454.638C251.232 336.463 360.308 228.729 511.424 -4H543.858Z" fill="url(#paint1_linear_1375_209)"/>
<path d="M510.5 -6.10352e-05C361.406 229.614 253.79 335.906 0 452.5V0L510.5 -6.10352e-05Z" fill="#04376D"/>
</g>
<defs>
<linearGradient id="paint0_linear_1375_209" x1="1311.99" y1="423.096" x2="715.254" y2="424.649" gradientUnits="userSpaceOnUse">
<stop stop-color="#04376D"/>
<stop offset="1" stop-color="#043162"/>
</linearGradient>
<linearGradient id="paint1_linear_1375_209" x1="-5.76674" y1="304.332" x2="543.625" y2="302.903" gradientUnits="userSpaceOnUse">
<stop stop-color="#043162"/>
<stop offset="1" stop-color="#04376D"/>
</linearGradient>
<clipPath id="clip0_1375_209">
<rect width="1280" height="726" fill="white"/>
</clipPath>
</defs>
</svg>
